<?xml version="1.0" encoding="UTF-8"?>
<svg width="483px" height="483px" viewBox="0 0 483 483" version="1.1" xmlns="http://www.w3.org/2000/svg" xmlns:xlink="http://www.w3.org/1999/xlink">
    <!-- Generator: Sketch 50.2 (55047) - http://www.bohemiancoding.com/sketch -->
    <title>mane</title>
    <desc>Created with Sketch.</desc>
    <defs></defs>
    <g id="Page-1" stroke="none" stroke-width="1" fill="none" fill-rule="evenodd">
        <g id="mane" fill="#FFFFFF" fill-rule="nonzero">
            <path d="M463.367,326.16 C433.412,339.791 400.87,346.804 367.959,346.72 C239.887,346.579 136.1,242.792 135.959,114.72 C135.87,81.81 142.877,49.268 156.503,19.312 L165.303,0 L145.959,8.704 C57.159,48.811 0.073,137.201 0.041,234.638 C-0.004,371.604 110.992,482.675 247.959,482.72 C345.431,482.657 433.842,425.546 473.975,336.72 L482.679,317.36 L463.367,326.16 Z M361.974,436.785 C250.394,499.772 108.88,460.38 45.893,348.8 C-17.094,237.22 22.299,95.707 133.879,32.72 C124.605,59.062 119.898,86.794 119.959,114.72 C120.118,251.621 231.058,362.561 367.959,362.72 C395.885,362.781 423.617,358.074 449.959,348.8 C429.189,385.593 398.767,416.016 361.974,436.785 Z" id="Shape"></path>
        </g>
    </g>
</svg>