<?xml version="1.0" encoding="UTF-8"?>
<svg width="191px" height="193px" viewBox="0 0 191 193" version="1.1" xmlns="http://www.w3.org/2000/svg" xmlns:xlink="http://www.w3.org/1999/xlink">
    <!-- Generator: Sketch 50.2 (55047) - http://www.bohemiancoding.com/sketch -->
    <title>night-sky</title>
    <desc>Created with Sketch.</desc>
    <defs></defs>
    <g id="Page-1" stroke="none" stroke-width="1" fill="none" fill-rule="evenodd">
        <g id="night-sky" fill="#FFFFFF" fill-rule="nonzero">
            <path d="M164.951,149.858 L37.784,149.858 C16.95,149.858 0,132.908 0,112.073 C0,91.239 16.95,74.289 37.784,74.289 C42.732,74.289 47.516,75.225 52.036,77.071 C60.015,56.788 79.669,43.309 101.609,43.309 C119.41,43.309 136.106,52.33 145.941,67.056 C151.833,56.929 154.933,45.436 154.933,33.62 C154.933,23.083 152.54,13.002 147.821,3.655 C147.431,2.884 147.581,1.95 148.192,1.34 C148.801,0.731 149.735,0.578 150.507,0.969 C174.444,13.055 189.313,37.207 189.313,64.001 C189.313,78.04 185.188,91.139 178.088,102.146 C185.866,106.762 190.612,115.026 190.612,124.196 C190.613,138.347 179.102,149.858 164.951,149.858 Z M37.784,78.289 C19.155,78.289 4,93.444 4,112.073 C4,130.702 19.155,145.858 37.784,145.858 L164.951,145.858 C176.895,145.858 186.613,136.14 186.613,124.196 C186.613,116.402 182.55,109.383 175.903,105.502 C162.622,123.74 141.422,134.576 118.832,134.576 C91.947,134.576 67.794,119.706 55.707,95.769 C55.317,94.998 55.467,94.064 56.078,93.454 C56.513,93.018 57.102,92.821 57.702,92.879 C57.969,92.89 58.235,92.956 58.486,93.083 C67.819,97.796 77.886,100.188 88.407,100.195 C110.644,100.179 131.18,89.216 143.592,70.801 C134.652,56.279 118.68,47.309 101.61,47.309 C80.646,47.309 61.94,60.614 55.063,80.416 C54.876,80.953 54.469,81.386 53.944,81.605 C53.421,81.823 52.827,81.809 52.312,81.564 C47.755,79.392 42.867,78.289 37.784,78.289 Z M62.336,99.243 C74.444,118.698 95.569,130.561 118.787,130.576 C119.033,130.576 119.279,130.574 119.527,130.571 C119.534,130.572 119.544,130.572 119.548,130.571 C123.16,130.528 126.728,130.193 130.227,129.584 C161.478,124.123 185.314,96.785 185.314,64.002 C185.314,40.738 173.432,19.586 153.933,7.476 C157.254,15.767 158.934,24.535 158.934,33.622 C158.934,47.134 155.109,60.249 147.868,71.579 C147.818,71.727 147.751,71.87 147.666,72.002 C134.572,92.161 112.437,104.196 88.452,104.196 C79.336,104.195 70.595,102.532 62.336,99.243 Z" id="Shape"></path>
            <g id="Group" transform="translate(53.000000, 165.000000)">
                <path d="M3.80409797,27.4012393 C3.43737546,27.4012393 3.07065294,27.3443783 2.70393042,27.2306563 C0.812792735,26.6336157 -0.229849716,24.6292651 0.38135448,22.7599594 L6.98235979,2.46057909 C7.59356399,0.591273404 9.61413315,-0.418009513 11.5052708,0.164815833 C13.3964085,0.761856432 14.4318603,2.76620701 13.8278468,4.63551269 L7.22684147,24.934893 C6.73787811,26.4417098 5.32851314,27.4012393 3.80409797,27.4012393 Z" id="Shape"></path>
                <path d="M74.804098,27.4012393 C74.4373755,27.4012393 74.0706529,27.3443783 73.7039304,27.2306563 C71.8127927,26.6336157 70.7701503,24.6292651 71.3813545,22.7599594 L77.9823598,2.46057909 C78.593564,0.591273404 80.6141332,-0.418009513 82.5052708,0.164815833 C84.3964085,0.761856432 85.4318603,2.76620701 84.8278468,4.63551269 L78.2268415,24.934893 C77.7378781,26.4417098 76.3285131,27.4012393 74.804098,27.4012393 Z" id="Shape"></path>
                <path d="M38.804098,27.4012393 C38.4373755,27.4012393 38.0706529,27.3443783 37.7039304,27.2306563 C35.8127927,26.6336157 34.7701503,24.6292651 35.3813545,22.7599594 L41.9823598,2.46057909 C42.593564,0.591273404 44.6141332,-0.418009513 46.5052708,0.164815833 C48.3964085,0.761856432 49.4318603,2.76620701 48.8278468,4.63551269 L42.2268415,24.934893 C41.7378781,26.4417098 40.3285131,27.4012393 38.804098,27.4012393 Z" id="Shape"></path>
            </g>
        </g>
    </g>
</svg>