<?xml version="1.0" encoding="iso-8859-1"?>
<!-- Generator: Adobe Illustrator 17.1.0, SVG Export Plug-In . SVG Version: 6.00 Build 0)  -->
<!DOCTYPE svg PUBLIC "-//W3C//DTD SVG 1.1//EN" "http://www.w3.org/Graphics/SVG/1.1/DTD/svg11.dtd">
<svg xmlns="http://www.w3.org/2000/svg" xmlns:xlink="http://www.w3.org/1999/xlink" version="1.1" id="Capa_1" x="0px" y="0px" viewBox="0 0 190.613 190.613" style="enable-background:new 0 0 190.613 190.613;" xml:space="preserve" width="512px" height="512px">
<path d="M164.951,169.858H37.784C16.95,169.858,0,152.908,0,132.073c0-20.834,16.95-37.784,37.784-37.784  c4.948,0,9.732,0.936,14.252,2.782c7.979-20.283,27.633-33.762,49.573-33.762c17.801,0,34.497,9.021,44.332,23.747  c5.892-10.127,8.992-21.62,8.992-33.436c0-10.537-2.393-20.618-7.112-29.965c-0.39-0.771-0.24-1.705,0.371-2.315  c0.609-0.609,1.543-0.762,2.315-0.371c23.937,12.086,38.806,36.238,38.806,63.032c0,14.039-4.125,27.138-11.225,38.145  c7.778,4.616,12.524,12.88,12.524,22.05C190.613,158.347,179.102,169.858,164.951,169.858z M37.784,98.289  C19.155,98.289,4,113.444,4,132.073s15.155,33.785,33.784,33.785h127.167c11.944,0,21.662-9.718,21.662-21.662  c0-7.794-4.063-14.813-10.71-18.694c-13.281,18.238-34.481,29.074-57.071,29.074c-26.885,0-51.038-14.87-63.125-38.807  c-0.39-0.771-0.24-1.705,0.371-2.315c0.435-0.436,1.024-0.633,1.624-0.575c0.267,0.011,0.533,0.077,0.784,0.204  c9.333,4.713,19.4,7.105,29.921,7.112c22.237-0.016,42.773-10.979,55.185-29.394c-8.94-14.522-24.912-23.492-41.982-23.492  c-20.964,0-39.67,13.305-46.547,33.107c-0.187,0.537-0.594,0.97-1.119,1.189c-0.523,0.218-1.117,0.204-1.632-0.041  C47.755,99.392,42.867,98.289,37.784,98.289z M62.336,119.243c12.108,19.455,33.233,31.318,56.451,31.333  c0.246,0,0.492-0.002,0.74-0.005c0.007,0.001,0.017,0.001,0.021,0c3.612-0.043,7.18-0.378,10.679-0.987  c31.251-5.461,55.087-32.799,55.087-65.582c0-23.264-11.882-44.416-31.381-56.526c3.321,8.291,5.001,17.059,5.001,26.146  c0,13.512-3.825,26.627-11.066,37.957c-0.05,0.148-0.117,0.291-0.202,0.423c-13.094,20.159-35.229,32.194-59.214,32.194  C79.336,124.195,70.595,122.532,62.336,119.243z" fill="#FFFFFF"/>
<g>
</g>
<g>
</g>
<g>
</g>
<g>
</g>
<g>
</g>
<g>
</g>
<g>
</g>
<g>
</g>
<g>
</g>
<g>
</g>
<g>
</g>
<g>
</g>
<g>
</g>
<g>
</g>
<g>
</g>
</svg>
