<?xml version="1.0" encoding="UTF-8"?>
<svg width="34px" height="30px" viewBox="0 0 34 30" version="1.1" xmlns="http://www.w3.org/2000/svg" xmlns:xlink="http://www.w3.org/1999/xlink">
    <!-- Generator: Sketch 50.2 (55047) - http://www.bohemiancoding.com/sketch -->
    <title>regn-lyn</title>
    <desc>Created with Sketch.</desc>
    <defs></defs>
    <g id="Page-1" stroke="none" stroke-width="1" fill="none" fill-rule="evenodd">
        <g id="regn-lyn">
            <g id="regn" fill="#FFFFFF" fill-rule="nonzero">
                <g id="Group">
                    <path d="M25.615,20.324 C25.339,20.324 25.115,20.1 25.115,19.824 C25.115,19.548 25.339,19.324 25.615,19.324 C29.17,19.324 32.061,16.432 32.061,12.878 C32.061,9.325 29.169,6.435 25.615,6.435 C25.317,6.435 25.002,6.461 24.624,6.518 C24.41,6.551 24.198,6.439 24.102,6.245 C22.558,3.114 19.44,1.17 15.965,1.17 C11.781,1.17 8.161,4.009 7.161,8.074 C7.105,8.302 6.883,8.447 6.663,8.454 L6.536,8.447 C6.533,8.447 6.53,8.447 6.527,8.447 C3.437,8.447 1,10.886 1,13.884 C1,16.884 3.441,19.324 6.442,19.324 C6.718,19.324 6.942,19.548 6.942,19.824 C6.942,20.1 6.718,20.324 6.442,20.324 C2.89,20.324 0,17.435 0,13.884 C0,10.382 2.81,7.523 6.294,7.444 C7.535,3.141 11.455,0.17 15.964,0.17 C19.702,0.17 23.068,2.196 24.833,5.481 C25.113,5.45 25.367,5.435 25.614,5.435 C29.72,5.435 33.06,8.774 33.06,12.878 C33.062,16.984 29.721,20.324 25.615,20.324 Z" id="Shape"></path>
                    <path d="M25.615,20.324 C25.339,20.324 25.115,20.1 25.115,19.824 C25.115,19.548 25.339,19.324 25.615,19.324 C29.17,19.324 32.061,16.432 32.061,12.878 C32.061,9.325 29.169,6.435 25.615,6.435 C23.753,6.435 21.982,7.24 20.757,8.643 C20.576,8.852 20.26,8.873 20.052,8.691 C19.844,8.51 19.823,8.194 20.004,7.986 C21.418,6.365 23.463,5.436 25.615,5.436 C29.721,5.436 33.061,8.775 33.061,12.879 C33.062,16.984 29.721,20.324 25.615,20.324 Z" id="Shape"></path>
                </g>
                <path d="M8.275,28.892 C8.224,28.892 8.173,28.884 8.122,28.868 C7.859,28.784 7.715,28.502 7.799,28.239 L8.717,25.384 C8.802,25.121 9.085,24.977 9.346,25.061 C9.609,25.145 9.754,25.427 9.669,25.69 L8.751,28.546 C8.683,28.757 8.486,28.892 8.275,28.892 Z M10.112,23.18 C10.061,23.18 10.01,23.172 9.959,23.156 C9.696,23.072 9.551,22.79 9.636,22.527 L10.554,19.671 C10.639,19.408 10.92,19.266 11.183,19.348 C11.446,19.432 11.59,19.714 11.506,19.977 L10.588,22.833 C10.52,23.045 10.324,23.18 10.112,23.18 Z" id="Shape"></path>
                <path d="M18.275,28.892 C18.224,28.892 18.173,28.884 18.122,28.868 C17.859,28.784 17.715,28.502 17.799,28.239 L18.717,25.384 C18.802,25.121 19.085,24.977 19.346,25.061 C19.609,25.145 19.754,25.427 19.669,25.69 L18.751,28.546 C18.683,28.757 18.486,28.892 18.275,28.892 Z M20.112,23.18 C20.061,23.18 20.01,23.172 19.959,23.156 C19.696,23.072 19.551,22.79 19.636,22.527 L20.554,19.671 C20.639,19.408 20.92,19.266 21.183,19.348 C21.446,19.432 21.59,19.714 21.506,19.977 L20.588,22.833 C20.52,23.045 20.324,23.18 20.112,23.18 Z" id="Shape"></path>
            </g>
            <g id="lyn" transform="translate(11.000000, 6.000000)" stroke="#FFFFFF">
                <path d="M1.37369323,23 C1.31156639,23 1.24943954,22.9846774 1.19373962,22.9526392 C1.04449237,22.8676684 0.978795016,22.6914584 1.03806545,22.5326604 L4.76781842,12.5318715 L0.259694645,11.2775069 C0.143296074,11.2454687 0.0511769601,11.157712 0.0154718771,11.0448818 C-0.0195191042,10.9320517 0.00547445387,10.8087743 0.0840256364,10.7182316 L9.22809739,0.12334335 C9.33664084,-0.00271994085 9.52087907,-0.0354546076 9.66941221,0.0404619599 C9.81794536,0.117771492 9.89149783,0.287016684 9.84436712,0.444421677 L7.20790379,9.36427011 L11.740307,10.6255995 C11.8574197,10.6576377 11.9495388,10.7460909 11.9845298,10.8596175 C12.0202349,10.9731442 11.993099,11.097118 11.9138337,11.1869642 L1.64505186,22.8788121 C1.5750699,22.9575146 1.47509567,23 1.37369323,23 Z" id="Shape"></path>
            </g>
        </g>
    </g>
</svg>