<?xml version="1.0" encoding="UTF-8"?>
<svg width="34px" height="29px" viewBox="0 0 34 29" version="1.1" xmlns="http://www.w3.org/2000/svg" xmlns:xlink="http://www.w3.org/1999/xlink">
    <!-- Generator: Sketch 50.2 (55047) - http://www.bohemiancoding.com/sketch -->
    <title>regn</title>
    <desc>Created with Sketch.</desc>
    <defs></defs>
    <g id="Page-1" stroke="none" stroke-width="1" fill="none" fill-rule="evenodd">
        <g id="regn" fill="#FFFFFF" fill-rule="nonzero">
            <g id="Group">
                <path d="M25.615,20.324 C25.339,20.324 25.115,20.1 25.115,19.824 C25.115,19.548 25.339,19.324 25.615,19.324 C29.17,19.324 32.061,16.432 32.061,12.878 C32.061,9.325 29.169,6.435 25.615,6.435 C25.317,6.435 25.002,6.461 24.624,6.518 C24.41,6.551 24.198,6.439 24.102,6.245 C22.558,3.114 19.44,1.17 15.965,1.17 C11.781,1.17 8.161,4.009 7.161,8.074 C7.105,8.302 6.883,8.447 6.663,8.454 L6.536,8.447 C6.533,8.447 6.53,8.447 6.527,8.447 C3.437,8.447 1,10.886 1,13.884 C1,16.884 3.441,19.324 6.442,19.324 C6.718,19.324 6.942,19.548 6.942,19.824 C6.942,20.1 6.718,20.324 6.442,20.324 C2.89,20.324 0,17.435 0,13.884 C0,10.382 2.81,7.523 6.294,7.444 C7.535,3.141 11.455,0.17 15.964,0.17 C19.702,0.17 23.068,2.196 24.833,5.481 C25.113,5.45 25.367,5.435 25.614,5.435 C29.72,5.435 33.06,8.774 33.06,12.878 C33.062,16.984 29.721,20.324 25.615,20.324 Z" id="Shape"></path>
                <path d="M25.615,20.324 C25.339,20.324 25.115,20.1 25.115,19.824 C25.115,19.548 25.339,19.324 25.615,19.324 C29.17,19.324 32.061,16.432 32.061,12.878 C32.061,9.325 29.169,6.435 25.615,6.435 C23.753,6.435 21.982,7.24 20.757,8.643 C20.576,8.852 20.26,8.873 20.052,8.691 C19.844,8.51 19.823,8.194 20.004,7.986 C21.418,6.365 23.463,5.436 25.615,5.436 C29.721,5.436 33.061,8.775 33.061,12.879 C33.062,16.984 29.721,20.324 25.615,20.324 Z" id="Shape"></path>
            </g>
            <path d="M8.275,28.892 C8.224,28.892 8.173,28.884 8.122,28.868 C7.859,28.784 7.715,28.502 7.799,28.239 L8.717,25.384 C8.802,25.121 9.085,24.977 9.346,25.061 C9.609,25.145 9.754,25.427 9.669,25.69 L8.751,28.546 C8.683,28.757 8.486,28.892 8.275,28.892 Z M10.112,23.18 C10.061,23.18 10.01,23.172 9.959,23.156 C9.696,23.072 9.551,22.79 9.636,22.527 L10.554,19.671 C10.639,19.408 10.92,19.266 11.183,19.348 C11.446,19.432 11.59,19.714 11.506,19.977 L10.588,22.833 C10.52,23.045 10.324,23.18 10.112,23.18 Z" id="Shape"></path>
            <path d="M18.275,28.892 C18.224,28.892 18.173,28.884 18.122,28.868 C17.859,28.784 17.715,28.502 17.799,28.239 L18.717,25.384 C18.802,25.121 19.085,24.977 19.346,25.061 C19.609,25.145 19.754,25.427 19.669,25.69 L18.751,28.546 C18.683,28.757 18.486,28.892 18.275,28.892 Z M20.112,23.18 C20.061,23.18 20.01,23.172 19.959,23.156 C19.696,23.072 19.551,22.79 19.636,22.527 L20.554,19.671 C20.639,19.408 20.92,19.266 21.183,19.348 C21.446,19.432 21.59,19.714 21.506,19.977 L20.588,22.833 C20.52,23.045 20.324,23.18 20.112,23.18 Z" id="Shape"></path>
            <path d="M13.275,28.892 C13.224,28.892 13.173,28.884 13.122,28.868 C12.859,28.784 12.715,28.502 12.799,28.239 L13.717,25.384 C13.802,25.121 14.085,24.977 14.346,25.061 C14.609,25.145 14.754,25.427 14.669,25.69 L13.751,28.546 C13.683,28.757 13.486,28.892 13.275,28.892 Z M15.112,23.18 C15.061,23.18 15.01,23.172 14.959,23.156 C14.696,23.072 14.551,22.79 14.636,22.527 L15.554,19.671 C15.639,19.408 15.92,19.266 16.183,19.348 C16.446,19.432 16.59,19.714 16.506,19.977 L15.588,22.833 C15.52,23.045 15.324,23.18 15.112,23.18 Z" id="Shape"></path>
        </g>
    </g>
</svg>