<?xml version="1.0" encoding="UTF-8"?>
<svg width="47px" height="34px" viewBox="0 0 47 34" version="1.1" xmlns="http://www.w3.org/2000/svg" xmlns:xlink="http://www.w3.org/1999/xlink">
    <!-- Generator: Sketch 50.2 (55047) - http://www.bohemiancoding.com/sketch -->
    <title>sky-sol</title>
    <desc>Created with Sketch.</desc>
    <defs></defs>
    <g id="Page-1" stroke="none" stroke-width="1" fill="none" fill-rule="evenodd">
        <g id="sky-sol" fill="#FFFFFF" fill-rule="nonzero">
            <path d="M25.615,33.658 L6.442,33.658 C2.89,33.658 0,30.769 0,27.217 C0,23.715 2.81,20.856 6.294,20.777 C7.534,16.474 11.454,13.503 15.964,13.503 C19.702,13.503 23.068,15.529 24.833,18.814 C25.112,18.783 25.367,18.768 25.614,18.768 C29.719,18.768 33.06,22.107 33.06,26.211 C33.061,30.317 29.721,33.658 25.615,33.658 Z M6.442,21.776 C3.442,21.776 1,24.217 1,27.217 C1,30.217 3.441,32.657 6.442,32.657 L25.615,32.657 C29.169,32.657 32.061,29.765 32.061,26.211 C32.061,22.658 29.169,19.768 25.615,19.768 C25.316,19.768 25.001,19.794 24.624,19.851 C24.409,19.882 24.198,19.773 24.102,19.578 C22.558,16.449 19.439,14.504 15.964,14.504 C11.78,14.504 8.16,17.343 7.16,21.408 C7.104,21.636 6.901,21.777 6.662,21.788 L6.442,21.776 Z" id="Shape"></path>
            <path d="M25.615,33.658 C25.339,33.658 25.115,33.434 25.115,33.158 C25.115,32.882 25.339,32.658 25.615,32.658 C29.169,32.658 32.061,29.766 32.061,26.212 C32.061,22.659 29.169,19.769 25.615,19.769 C23.752,19.769 21.982,20.574 20.758,21.977 C20.576,22.185 20.261,22.206 20.052,22.025 C19.844,21.843 19.823,21.527 20.004,21.319 C21.418,19.698 23.463,18.769 25.615,18.769 C29.72,18.769 33.061,22.108 33.061,26.212 C33.061,30.317 29.721,33.658 25.615,33.658 Z" id="Shape"></path>
            <g id="Group" transform="translate(18.000000, 0.000000)">
                <path d="M18.044,23.809 C17.916,23.809 17.788,23.76 17.69,23.662 C17.495,23.466 17.496,23.149 17.691,22.954 C19.182,21.47 20.003,19.494 20.003,17.39 C20.003,13.06 16.481,9.537 12.15,9.537 C9.872,9.537 7.708,10.526 6.213,12.25 C6.031,12.458 5.716,12.481 5.507,12.3 C5.299,12.119 5.276,11.803 5.457,11.594 C7.142,9.651 9.582,8.536 12.15,8.536 C17.031,8.536 21.003,12.507 21.003,17.389 C21.003,19.761 20.078,21.989 18.398,23.662 C18.299,23.761 18.171,23.809 18.044,23.809 Z" id="Shape"></path>
                <path d="M12.15,5.695 C11.874,5.695 11.65,5.471 11.65,5.195 L11.65,1.442 C11.65,1.166 11.874,0.942 12.15,0.942 C12.426,0.942 12.65,1.166 12.65,1.442 L12.65,5.195 C12.65,5.471 12.426,5.695 12.15,5.695 Z" id="Shape"></path>
                <path d="M28.1,17.89 L24.347,17.89 C24.071,17.89 23.847,17.666 23.847,17.39 C23.847,17.114 24.071,16.89 24.347,16.89 L28.1,16.89 C28.376,16.89 28.6,17.114 28.6,17.39 C28.6,17.666 28.376,17.89 28.1,17.89 Z" id="Shape"></path>
                <path d="M20.774,9.266 C20.646,9.266 20.518,9.217 20.42,9.12 C20.225,8.925 20.225,8.608 20.42,8.413 L23.074,5.76 C23.269,5.565 23.586,5.565 23.781,5.76 C23.976,5.955 23.976,6.272 23.781,6.467 L21.127,9.12 C21.03,9.217 20.902,9.266 20.774,9.266 Z" id="Shape"></path>
                <g transform="translate(0.000000, 5.000000)" id="Shape">
                    <path d="M23.427,24.168 C23.299,24.168 23.171,24.119 23.073,24.022 L20.42,21.37 C20.225,21.175 20.225,20.858 20.42,20.663 C20.615,20.468 20.932,20.468 21.127,20.663 L23.78,23.315 C23.975,23.51 23.975,23.827 23.78,24.022 C23.683,24.12 23.555,24.168 23.427,24.168 Z"></path>
                    <path d="M3.524,4.266 C3.396,4.266 3.268,4.217 3.17,4.12 L0.518,1.467 C0.323,1.272 0.323,0.955 0.518,0.76 C0.713,0.565 1.03,0.565 1.225,0.76 L3.877,3.413 C4.072,3.608 4.072,3.925 3.877,4.12 C3.78,4.217 3.652,4.266 3.524,4.266 Z"></path>
                </g>
            </g>
        </g>
    </g>
</svg>