<?xml version="1.0" encoding="UTF-8"?>
<svg width="34px" height="21px" viewBox="0 0 34 21" version="1.1" xmlns="http://www.w3.org/2000/svg" xmlns:xlink="http://www.w3.org/1999/xlink">
    <!-- Generator: Sketch 50.2 (55047) - http://www.bohemiancoding.com/sketch -->
    <title>sky</title>
    <desc>Created with Sketch.</desc>
    <defs></defs>
    <g id="Page-1" stroke="none" stroke-width="1" fill="none" fill-rule="evenodd">
        <g id="sky" fill="#FFFFFF" fill-rule="nonzero">
            <path d="M25.615,20.608 L6.442,20.608 C2.89,20.608 0,17.719 0,14.167 C0,10.665 2.81,7.806 6.294,7.727 C7.535,3.424 11.455,0.453 15.964,0.453 C19.702,0.453 23.068,2.479 24.833,5.764 C25.113,5.733 25.367,5.718 25.614,5.718 C29.72,5.718 33.06,9.057 33.06,13.161 C33.062,17.268 29.721,20.608 25.615,20.608 Z M6.442,8.726 C3.441,8.726 1,11.167 1,14.167 C1,17.167 3.441,19.607 6.442,19.607 L25.615,19.607 C29.17,19.607 32.061,16.715 32.061,13.161 C32.061,9.608 29.169,6.718 25.615,6.718 C25.317,6.718 25.002,6.744 24.624,6.801 C24.41,6.833 24.198,6.722 24.102,6.528 C22.558,3.399 19.439,1.454 15.964,1.454 C11.78,1.454 8.16,4.293 7.16,8.358 C7.104,8.586 6.885,8.735 6.662,8.738 L6.442,8.726 Z" id="Shape"></path>
            <path d="M25.615,20.608 C25.339,20.608 25.115,20.384 25.115,20.108 C25.115,19.832 25.339,19.608 25.615,19.608 C29.17,19.608 32.061,16.716 32.061,13.162 C32.061,9.609 29.169,6.719 25.615,6.719 C23.753,6.719 21.982,7.524 20.757,8.927 C20.576,9.135 20.26,9.157 20.052,8.975 C19.844,8.794 19.823,8.478 20.004,8.27 C21.418,6.649 23.463,5.72 25.615,5.72 C29.721,5.72 33.061,9.059 33.061,13.163 C33.062,17.268 29.721,20.608 25.615,20.608 Z" id="Shape"></path>
        </g>
    </g>
</svg>