<?xml version="1.0" encoding="UTF-8"?>
<svg width="35px" height="35px" viewBox="0 0 35 35" version="1.1" xmlns="http://www.w3.org/2000/svg" xmlns:xlink="http://www.w3.org/1999/xlink">
    <!-- Generator: Sketch 50.2 (55047) - http://www.bohemiancoding.com/sketch -->
    <title>sol</title>
    <desc>Created with Sketch.</desc>
    <defs></defs>
    <g id="Page-1" stroke="none" stroke-width="1" fill="none" fill-rule="evenodd">
        <g id="sol" fill="#FFFFFF" fill-rule="nonzero">
            <path d="M17.424,26.788 C12.261,26.788 8.061,22.588 8.061,17.425 C8.061,12.261 12.261,8.061 17.424,8.061 C22.587,8.061 26.787,12.262 26.787,17.425 C26.788,22.588 22.587,26.788 17.424,26.788 Z M17.424,9.061 C12.813,9.061 9.061,12.813 9.061,17.425 C9.061,22.036 12.813,25.788 17.424,25.788 C22.035,25.788 25.787,22.036 25.787,17.425 C25.788,12.813 22.036,9.061 17.424,9.061 Z" id="Shape"></path>
            <g id="Group" transform="translate(16.000000, 0.000000)">
                <path d="M1.424,4.982 C1.148,4.982 0.924,4.758 0.924,4.482 L0.924,0.5 C0.924,0.224 1.148,0 1.424,0 C1.7,0 1.924,0.224 1.924,0.5 L1.924,4.482 C1.924,4.759 1.701,4.982 1.424,4.982 Z" id="Shape"></path>
                <path d="M1.424,34.85 C1.148,34.85 0.924,34.626 0.924,34.35 L0.924,30.368 C0.924,30.092 1.148,29.868 1.424,29.868 C1.7,29.868 1.924,30.092 1.924,30.368 L1.924,34.35 C1.924,34.626 1.701,34.85 1.424,34.85 Z" id="Shape"></path>
            </g>
            <g id="Group" transform="translate(0.000000, 16.000000)">
                <path d="M4.482,1.925 L0.5,1.925 C0.224,1.925 0,1.701 0,1.425 C0,1.149 0.224,0.925 0.5,0.925 L4.481,0.925 C4.757,0.925 4.981,1.149 4.981,1.425 C4.981,1.701 4.758,1.925 4.482,1.925 Z" id="Shape"></path>
                <path d="M34.349,1.925 L30.367,1.925 C30.091,1.925 29.867,1.701 29.867,1.425 C29.867,1.149 30.091,0.925 30.367,0.925 L34.349,0.925 C34.625,0.925 34.849,1.149 34.849,1.425 C34.849,1.701 34.625,1.925 34.349,1.925 Z" id="Shape"></path>
            </g>
            <g id="Group" transform="translate(4.000000, 4.000000)">
                <path d="M4.274,4.771 C4.146,4.771 4.018,4.722 3.92,4.625 L1.104,1.811 C0.909,1.616 0.909,1.299 1.104,1.104 C1.299,0.909 1.616,0.909 1.811,1.104 L4.627,3.918 C4.822,4.113 4.822,4.43 4.627,4.625 C4.53,4.723 4.402,4.771 4.274,4.771 Z" id="Shape"></path>
                <path d="M25.393,25.893 C25.265,25.893 25.137,25.844 25.039,25.747 L22.223,22.93 C22.028,22.735 22.028,22.418 22.223,22.223 C22.418,22.028 22.735,22.028 22.93,22.223 L25.746,25.04 C25.941,25.235 25.941,25.552 25.746,25.747 C25.649,25.844 25.521,25.893 25.393,25.893 Z" id="Shape"></path>
            </g>
            <g id="Group" transform="translate(4.000000, 4.000000)">
                <path d="M1.458,25.893 C1.33,25.893 1.202,25.844 1.104,25.747 C0.909,25.552 0.909,25.235 1.104,25.04 L3.92,22.223 C4.115,22.028 4.432,22.028 4.627,22.223 C4.822,22.418 4.822,22.735 4.627,22.93 L1.811,25.747 C1.713,25.844 1.585,25.893 1.458,25.893 Z" id="Shape"></path>
                <path d="M22.577,4.771 C22.449,4.771 22.321,4.722 22.223,4.625 C22.028,4.43 22.028,4.113 22.223,3.918 L25.039,1.104 C25.234,0.909 25.551,0.909 25.746,1.104 C25.941,1.299 25.941,1.616 25.746,1.811 L22.93,4.625 C22.833,4.723 22.705,4.771 22.577,4.771 Z" id="Shape"></path>
            </g>
        </g>
    </g>
</svg>