<?xml version="1.0" encoding="iso-8859-1"?>
<!-- Generator: Adobe Illustrator 19.0.0, SVG Export Plug-In . SVG Version: 6.00 Build 0)  -->
<svg version="1.1" id="Capa_1" xmlns="http://www.w3.org/2000/svg" xmlns:xlink="http://www.w3.org/1999/xlink" x="0px" y="0px"
	 viewBox="0 0 508.008 508.008" style="" fill="#015EC5" xml:space="preserve">
<g>
	<g>
		<path d="M508,320.104c-0.8-65.6-60.5-105.4-115.1-94l-15.4-41.8v-54.2c0-21-17.1-38.1-38.1-38.1h-26.5c-7.8,0-14.1,6.3-14.1,14.1
			c0,7.8,6.3,14.1,14.1,14.1h26.5c5.5,0,9.9,4.5,9.9,9.9v42H203.2v-12.2h20.1c7.8,0,14.1-6.3,14.1-14.1s-6.3-14.1-14.1-14.1h-68.5
			c-7.8,0-14.1,6.3-14.1,14.1s6.3,14.1,14.1,14.1H175v22l-35.6,52.8c-60.9-31-137.9,9.8-139.4,85.4c0,52.9,43,95.9,95.9,95.9
			c46.7,0,85.6-33.5,94.2-77.7h35.2c3.7,0,7.3-1.5,10-4.1l122.4-122.4l8.7,23.9c-29.9,16.3-50.3,48-50.3,84.4
			c0,52.9,43,95.9,96,95.9C465,416.004,508.7,373.004,508,320.104z M95.9,387.804c-37.3,0-67.7-30.4-67.7-67.7
			c0-44.1,44.1-82.4,95.2-61.8l-39.2,58.1c-2.9,4.3-3.2,9.9-0.8,14.5c2.4,4.6,7.2,7.5,12.5,7.5h65.2
			C153.1,366.904,127,387.804,95.9,387.804z M122.5,310.104l23.8-35.2c8.7,9.7,14.6,21.8,16.6,35.2H122.5z M219.5,310.104h-28.1
			c-2.4-23.1-13.1-43.8-29-59.1l34.3-50.8h132.7L219.5,310.104z M412,387.804c-37.3,0-67.7-30.4-67.7-67.7
			c0-24.2,12.8-45.4,31.9-57.4l22.6,62.2c2.3,6.2,9.5,11.4,18.1,8.4c7.3-2.7,11.1-10.8,8.4-18.1l-22.6-62.2
			c41.1-5.9,77.1,26.6,77.1,67C479.8,357.504,449.4,387.804,412,387.804z"/>
	</g>
</g>
<g>
</g>
<g>
</g>
<g>
</g>
<g>
</g>
<g>
</g>
<g>
</g>
<g>
</g>
<g>
</g>
<g>
</g>
<g>
</g>
<g>
</g>
<g>
</g>
<g>
</g>
<g>
</g>
<g>
</g>
</svg>
